<?xml version="1.0" standalone="no"?>
<!DOCTYPE svg PUBLIC "-//W3C//DTD SVG 20010904//EN"
 "http://www.w3.org/TR/2001/REC-SVG-20010904/DTD/svg10.dtd">
<svg version="1.0" xmlns="http://www.w3.org/2000/svg"
 width="300.000000pt" height="300.000000pt" viewBox="0 0 300.000000 300.000000"
 preserveAspectRatio="xMidYMid meet">
<metadata>
Created by potrace 1.10, written by Peter Selinger 2001-2011
</metadata>
<g transform="translate(0.000000,300.000000) scale(0.100000,-0.100000)"
fill="#000000" stroke="none">
<path d="M1364 2875 c-231 -35 -411 -104 -591 -224 -398 -267 -630 -723 -610
-1201 12 -296 105 -560 275 -783 375 -493 1013 -680 1594 -466 190 70 335 164
489 318 276 277 409 594 409 977 0 291 -76 544 -237 786 -67 102 -268 301
-373 370 -164 107 -348 182 -527 213 -125 23 -319 27 -429 10z m402 -90 c485
-84 894 -446 1030 -914 219 -752 -262 -1524 -1030 -1656 -117 -20 -340 -20
-447 1 -402 76 -734 319 -924 676 -103 195 -147 373 -148 603 -1 226 33 377
127 570 71 145 159 266 271 373 189 181 400 290 660 342 116 24 339 26 461 5z"/>
<path d="M855 2288 c-75 -41 -112 -126 -102 -235 14 -143 88 -201 223 -173 52
11 54 13 48 38 -4 15 -7 28 -8 28 -1 1 -24 -3 -53 -9 -44 -9 -55 -8 -78 7 -35
23 -55 73 -55 138 0 68 15 120 41 144 25 23 82 24 107 1 17 -16 20 -16 40 8
l21 24 -28 21 c-33 22 -121 27 -156 8z"/>
<path d="M1283 2283 c-7 -21 -142 -372 -150 -390 -4 -9 7 -13 34 -13 39 0 40
1 57 55 l17 55 77 0 78 0 15 -52 c15 -52 16 -53 59 -56 32 -3 41 0 37 10 -10
24 -144 373 -150 391 -4 11 -17 17 -37 17 -20 0 -33 -6 -37 -17z m47 -93 c0
-11 11 -49 24 -85 l24 -65 -60 0 c-54 0 -59 2 -53 18 5 9 18 49 29 89 20 67
36 86 36 43z"/>
<path d="M1683 2280 c-40 -24 -53 -48 -53 -98 0 -49 31 -84 97 -113 27 -11 56
-28 66 -36 23 -22 22 -58 -4 -84 -26 -26 -78 -21 -121 11 l-28 20 -13 -32
c-13 -31 -12 -34 7 -45 76 -43 170 -36 221 17 25 26 30 40 30 80 0 58 -25 90
-94 121 -61 27 -81 47 -81 81 0 42 39 55 98 32 41 -15 44 -15 57 2 22 30 18
40 -24 52 -58 18 -122 15 -158 -8z"/>
<path d="M2121 2207 c-19 -50 -56 -145 -82 -210 l-46 -118 41 3 c40 3 41 4 56
56 l15 52 76 0 76 0 17 -43 c9 -23 16 -48 16 -55 0 -8 16 -12 44 -12 l44 0
-37 93 c-21 50 -57 145 -82 209 -43 115 -45 118 -74 118 -29 0 -32 -4 -64 -93z
m88 -68 c10 -35 22 -72 26 -81 6 -16 1 -18 -49 -18 -31 0 -56 2 -56 5 0 5 23
83 46 154 7 21 13 10 33 -60z"/>
<path d="M1390 1597 l0 -109 57 4 c74 6 103 36 103 107 0 71 -22 94 -99 101
l-61 6 0 -109z m80 73 c21 0 40 -34 40 -72 0 -48 -22 -78 -57 -78 -22 0 -23 3
-23 81 0 70 2 80 16 75 9 -3 19 -6 24 -6z"/>
<path d="M1653 1700 c-62 -26 -71 -153 -14 -197 26 -20 77 -15 107 10 22 19
28 34 32 78 4 48 1 59 -19 82 -26 30 -72 42 -106 27z m67 -40 c39 -39 17 -140
-30 -140 -47 0 -69 101 -30 140 11 11 25 20 30 20 6 0 19 -9 30 -20z"/>
<path d="M862 1290 c-19 -4 -49 -23 -68 -41 -93 -90 -80 -316 22 -364 36 -17
129 -20 168 -5 22 8 24 13 17 32 -6 15 -15 22 -27 20 -54 -10 -103 -6 -121 11
-59 52 -56 229 4 277 32 25 63 26 95 0 l25 -19 21 28 20 28 -26 15 c-35 21
-89 29 -130 18z"/>
<path d="M1420 1083 l0 -213 41 0 42 0 -5 152 c-4 114 -2 148 6 134 6 -10 49
-78 95 -152 81 -128 86 -134 118 -134 l33 0 0 210 0 210 -42 0 -41 0 6 -151 6
-150 -37 60 c-20 32 -64 100 -97 149 -52 79 -64 91 -92 94 l-33 4 0 -213z
m290 -110 c0 -10 -4 -24 -9 -32 -7 -11 -11 -10 -19 6 -8 14 -8 23 0 31 17 17
28 15 28 -5z"/>
<path d="M2241 1290 c-47 -11 -82 -40 -110 -90 -20 -35 -24 -57 -24 -125 0
-97 20 -146 74 -183 29 -20 44 -23 104 -20 79 4 123 27 153 81 26 49 24 220
-3 265 -36 60 -118 91 -194 72z m87 -66 c37 -26 52 -67 52 -144 0 -104 -34
-160 -96 -160 -30 0 -72 30 -85 62 -19 46 -17 165 4 205 28 53 80 69 125 37z"/>
<path d="M1094 1080 l-81 -210 38 0 c37 0 38 1 55 55 l18 55 77 0 78 0 17 -55
18 -55 42 0 43 0 -23 53 c-12 28 -49 123 -82 209 -58 155 -59 158 -89 158 -30
0 -31 -1 -111 -210z m161 -32 c6 -16 0 -18 -52 -18 l-59 0 30 91 30 90 22 -73
c12 -40 25 -81 29 -90z"/>
<path d="M1784 1259 l-1 -31 53 4 54 5 0 -184 0 -183 40 0 41 0 -1 183 -2 182
47 -4 c49 -3 65 7 65 42 0 15 -14 17 -147 17 l-148 0 -1 -31z"/>
<path d="M1293 498 c-8 -14 7 -27 23 -21 14 5 15 -4 12 -66 -3 -62 -1 -71 15
-71 15 0 17 11 17 83 l0 82 -31 0 c-17 0 -33 -3 -36 -7z"/>
<path d="M1434 500 c-29 -12 -38 -39 -19 -60 14 -16 14 -18 0 -23 -18 -7 -20
-48 -3 -65 16 -16 80 -16 96 0 15 15 15 51 0 66 -8 8 -8 15 1 26 9 11 10 20 1
35 -6 12 -15 21 -20 21 -4 0 -14 2 -22 4 -7 3 -22 1 -34 -4z m51 -40 c0 -9
-11 -16 -27 -18 -27 -3 -38 14 -21 32 12 12 48 2 48 -14z m8 -64 c7 -19 -17
-39 -40 -34 -10 2 -19 13 -21 26 -3 18 1 22 26 22 17 0 32 -6 35 -14z"/>
<path d="M1567 455 c-15 -31 -27 -60 -27 -65 0 -6 18 -10 41 -10 36 0 40 -2
34 -20 -5 -15 -2 -20 13 -20 15 0 19 5 15 20 -4 14 0 20 11 20 9 0 16 7 16 15
0 8 -7 15 -15 15 -9 0 -15 7 -13 16 2 10 -3 19 -9 21 -8 3 -13 -5 -13 -21 0
-21 -5 -26 -25 -26 -26 0 -31 9 -17 26 5 5 19 26 31 47 21 35 22 37 4 37 -13
0 -27 -18 -46 -55z"/>
<path d="M1680 487 c0 -15 5 -17 30 -12 35 8 41 -8 10 -25 -25 -13 -27 -42 -2
-39 33 3 42 -1 42 -20 0 -24 -26 -34 -52 -20 -23 12 -33 6 -25 -16 4 -9 19
-15 40 -15 61 0 90 63 39 85 -27 12 -27 17 -2 40 32 29 24 40 -30 40 -42 0
-50 -3 -50 -18z"/>
</g>
</svg>
